<mxfile host="www.draw.io" modified="2019-11-19T10:17:31.216Z" agent="Mozilla/5.0 (Windows NT 10.0; WOW64) AppleWebKit/537.36 (KHTML, like Gecko) Chrome/78.0.3904.97 Safari/537.36" etag="spsRvIOUHqLMLBSBWDJy" version="12.2.6" type="github" pages="1">
  <diagram id="Dvi-IkTzgO4W6BQSCua2" name="第 1 页">
    <mxGraphModel dx="868" dy="450" grid="1" gridSize="10" guides="1" tooltips="1" connect="1" arrows="1" fold="1" page="1" pageScale="1" pageWidth="827" pageHeight="1169" math="0" shadow="0">
      <root>
        <mxCell id="0"/>
        <mxCell id="1" parent="0"/>
        <mxCell id="d0EzxakRIuC7BX1Jdtn0-4" style="edgeStyle=orthogonalEdgeStyle;rounded=0;orthogonalLoop=1;jettySize=auto;html=1;entryX=0;entryY=0.5;entryDx=0;entryDy=0;" edge="1" parent="1" source="Te8sVzdrQqSse8OglZep-1" target="d0EzxakRIuC7BX1Jdtn0-3">
          <mxGeometry relative="1" as="geometry"/>
        </mxCell>
        <mxCell id="d0EzxakRIuC7BX1Jdtn0-5" value="系统对接" style="text;html=1;resizable=0;points=[];align=center;verticalAlign=middle;labelBackgroundColor=#ffffff;" vertex="1" connectable="0" parent="d0EzxakRIuC7BX1Jdtn0-4">
          <mxGeometry x="-0.1176" y="-2" relative="1" as="geometry">
            <mxPoint x="5" y="-2" as="offset"/>
          </mxGeometry>
        </mxCell>
        <mxCell id="d0EzxakRIuC7BX1Jdtn0-8" value="数据存储" style="edgeStyle=orthogonalEdgeStyle;rounded=0;orthogonalLoop=1;jettySize=auto;html=1;entryX=0;entryY=0.5;entryDx=0;entryDy=0;" edge="1" parent="1" source="Te8sVzdrQqSse8OglZep-1" target="d0EzxakRIuC7BX1Jdtn0-6">
          <mxGeometry relative="1" as="geometry">
            <Array as="points">
              <mxPoint x="500" y="450"/>
              <mxPoint x="500" y="340"/>
            </Array>
          </mxGeometry>
        </mxCell>
        <mxCell id="Te8sVzdrQqSse8OglZep-1" value="" style="rounded=1;whiteSpace=wrap;html=1;" parent="1" vertex="1">
          <mxGeometry x="240" y="200" width="160" height="660" as="geometry"/>
        </mxCell>
        <mxCell id="Te8sVzdrQqSse8OglZep-2" value="路由模块" style="rounded=1;whiteSpace=wrap;html=1;" parent="1" vertex="1">
          <mxGeometry x="260" y="300" width="120" height="60" as="geometry"/>
        </mxCell>
        <mxCell id="Te8sVzdrQqSse8OglZep-3" value="&lt;span style=&quot;white-space: normal&quot;&gt;产品模块&lt;/span&gt;" style="rounded=1;whiteSpace=wrap;html=1;" parent="1" vertex="1">
          <mxGeometry x="260" y="385" width="120" height="60" as="geometry"/>
        </mxCell>
        <mxCell id="Te8sVzdrQqSse8OglZep-4" value="核心模块" style="rounded=1;whiteSpace=wrap;html=1;" parent="1" vertex="1">
          <mxGeometry x="260" y="460" width="120" height="60" as="geometry"/>
        </mxCell>
        <mxCell id="Te8sVzdrQqSse8OglZep-6" value="渠道模块" style="rounded=1;whiteSpace=wrap;html=1;" parent="1" vertex="1">
          <mxGeometry x="260" y="540" width="120" height="60" as="geometry"/>
        </mxCell>
        <mxCell id="Te8sVzdrQqSse8OglZep-7" value="通知模块" style="rounded=1;whiteSpace=wrap;html=1;" parent="1" vertex="1">
          <mxGeometry x="260" y="620" width="120" height="60" as="geometry"/>
        </mxCell>
        <mxCell id="Te8sVzdrQqSse8OglZep-8" value="&lt;b&gt;支付中心&lt;/b&gt;" style="rounded=1;whiteSpace=wrap;html=1;strokeColor=none;" parent="1" vertex="1">
          <mxGeometry x="260" y="220" width="120" height="60" as="geometry"/>
        </mxCell>
        <mxCell id="d0EzxakRIuC7BX1Jdtn0-1" value="web模块" style="rounded=1;whiteSpace=wrap;html=1;" vertex="1" parent="1">
          <mxGeometry x="260" y="700" width="120" height="60" as="geometry"/>
        </mxCell>
        <mxCell id="d0EzxakRIuC7BX1Jdtn0-2" value="查询模块" style="rounded=1;whiteSpace=wrap;html=1;" vertex="1" parent="1">
          <mxGeometry x="260" y="780" width="120" height="60" as="geometry"/>
        </mxCell>
        <mxCell id="d0EzxakRIuC7BX1Jdtn0-3" value="第三方支付" style="rounded=1;whiteSpace=wrap;html=1;" vertex="1" parent="1">
          <mxGeometry x="570" y="500" width="120" height="60" as="geometry"/>
        </mxCell>
        <mxCell id="d0EzxakRIuC7BX1Jdtn0-10" value="获取订单数据" style="edgeStyle=orthogonalEdgeStyle;rounded=0;orthogonalLoop=1;jettySize=auto;html=1;entryX=0.5;entryY=1;entryDx=0;entryDy=0;" edge="1" parent="1" source="d0EzxakRIuC7BX1Jdtn0-6" target="d0EzxakRIuC7BX1Jdtn0-9">
          <mxGeometry relative="1" as="geometry"/>
        </mxCell>
        <mxCell id="d0EzxakRIuC7BX1Jdtn0-6" value="数据库" style="shape=cylinder;whiteSpace=wrap;html=1;boundedLbl=1;backgroundOutline=1;" vertex="1" parent="1">
          <mxGeometry x="600" y="300" width="60" height="80" as="geometry"/>
        </mxCell>
        <mxCell id="d0EzxakRIuC7BX1Jdtn0-9" value="公司的兄弟团队，比如：大数据、风险" style="rounded=1;whiteSpace=wrap;html=1;" vertex="1" parent="1">
          <mxGeometry x="570" y="100" width="120" height="60" as="geometry"/>
        </mxCell>
        <mxCell id="d0EzxakRIuC7BX1Jdtn0-12" style="edgeStyle=orthogonalEdgeStyle;rounded=0;orthogonalLoop=1;jettySize=auto;html=1;entryX=0;entryY=0.5;entryDx=0;entryDy=0;" edge="1" parent="1" source="d0EzxakRIuC7BX1Jdtn0-11" target="Te8sVzdrQqSse8OglZep-1">
          <mxGeometry relative="1" as="geometry"/>
        </mxCell>
        <mxCell id="d0EzxakRIuC7BX1Jdtn0-11" value="订单中心" style="rounded=1;whiteSpace=wrap;html=1;" vertex="1" parent="1">
          <mxGeometry x="20" y="500" width="120" height="60" as="geometry"/>
        </mxCell>
        <mxCell id="d0EzxakRIuC7BX1Jdtn0-13" value="QPS" style="text;html=1;resizable=0;points=[];autosize=1;align=left;verticalAlign=top;spacingTop=-4;" vertex="1" parent="1">
          <mxGeometry x="179" y="524" width="40" height="20" as="geometry"/>
        </mxCell>
      </root>
    </mxGraphModel>
  </diagram>
</mxfile>
